HIERARCHY
ROOT Hips
{
  OFFSET 1.44925e-005 102.336 -0.101585
  CHANNELS 6 Xposition Yposition Zposition Zrotation Xrotation Yrotation
  JOINT LeftUpLeg
  {
    OFFSET 8.9458 -8.66707 0.101652
    CHANNELS 3 Zrotation Xrotation Yrotation
    JOINT LeftLeg
    {
      OFFSET 0 -44.4227 1.3727
      CHANNELS 3 Zrotation Xrotation Yrotation
      JOINT LeftFoot
      {
        OFFSET -0.253549 -42.0924 -1.46059
        CHANNELS 3 Zrotation Xrotation Yrotation
        JOINT LeftToes
        {
          OFFSET -0.04 -4.41509 8.4991
          CHANNELS 3 Zrotation Xrotation Yrotation
          End Site
          {
            OFFSET 0.08 -0.047448 9.77979
          }
        }
      }
    }
  }
  JOINT Spine
  {
    OFFSET 0 11.8905 0
    CHANNELS 3 Zrotation Xrotation Yrotation
    JOINT Spine1
    {
      OFFSET 0 25.6574 0.127663
      CHANNELS 3 Zrotation Xrotation Yrotation
      JOINT RightShoulder
      {
        OFFSET -8.99 -0.362252 -0.22
        CHANNELS 3 Zrotation Xrotation Yrotation
        JOINT RightArm
        {
          OFFSET -10.2827 -0.00338 0.322123
          CHANNELS 3 Zrotation Xrotation Yrotation
          JOINT RightForeArm
          {
            OFFSET -26.364 0.099144 -1.42434
            CHANNELS 3 Zrotation Xrotation Yrotation
            JOINT RightHand
            {
              OFFSET -22.0324 0.085362 1.02216
              CHANNELS 3 Zrotation Xrotation Yrotation
              End Site
              {
                OFFSET -13.3284 -0.6 1.50291
              }
            }
          }
        }
      }
      JOINT LeftShoulder1
      {
        OFFSET 8.99 -0.362252 -0.22
        CHANNELS 3 Zrotation Xrotation Yrotation
        JOINT LeftArm
        {
          OFFSET 10.2827 -0.00337999 0.322123
          CHANNELS 3 Zrotation Xrotation Yrotation
          JOINT LeftForeArm
          {
            OFFSET 26.2597 0.099144 -1.42434
            CHANNELS 3 Zrotation Xrotation Yrotation
            JOINT LeftHand
            {
              OFFSET 22.0902 0.085362 1.02216
              CHANNELS 3 Zrotation Xrotation Yrotation
              End Site
              {
                OFFSET 13.419 -0.6 1.50291
              }
            }
          }
        }
      }
      JOINT Head
      {
        OFFSET 0 8.73416 0.011341
        CHANNELS 3 Zrotation Xrotation Yrotation
        End Site
        {
          OFFSET -0.29 12.7742 2.51395
        }
      }
    }
  }
  JOINT RightUpLeg
  {
    OFFSET -8.9458 -8.66707 0.101652
    CHANNELS 3 Zrotation Xrotation Yrotation
    JOINT RightLeg
    {
      OFFSET 0 -44.4227 1.3727
      CHANNELS 3 Zrotation Xrotation Yrotation
      JOINT RightFoot
      {
        OFFSET 0.253549 -42.0924 -1.46059
        CHANNELS 3 Zrotation Xrotation Yrotation
        JOINT RightToes
        {
          OFFSET 0.04 -4.41509 8.4991
          CHANNELS 3 Zrotation Xrotation Yrotation
          End Site
          {
            OFFSET -0.08 -0.137448 9.77979
          }
        }
      }
    }
  }
}
MOTION
Frames:	7
Frame Time:	0.0333333
256.078 103.311 8.13813 -2.43901 -0.332654 -93.2777 0.36402 1.77138 3.01667 -0.109686 8.56789 19.9258 -3.30406 -11.3523 -0.0414868 -1.33828e-009 8.75237e-006 -1.47794e-008 0.829854 4.92672 1.23524 -1.47808 -1.86258 1.60309 35.5339 1.68376 0.0226503 42.0463 -16.6713 1.29416 5.3 32.1184 13.3327 -8.04171 9.57669 -0.318457 -45.4643 3.58055 -3.33169 -26.4765 -13.0561 1.99692 -4.86642 35.128 -14.2829 5.82328 9.61819 -0.917488 1.62424 -2.85322 -0.577727 -2.0864 1.17157 -4.30673 -0.749053 10.6519 -7.89772 4.78009 -12.9298 0.0298052 0.0462048 0.000530889 0.662642 
255.983 103.308 8.18463 -2.7302 -0.279914 -92.842 0.363818 2.06381 2.99877 -0.0132155 8.65259 19.5089 -3.19175 -11.429 -0.0414979 -1.33828e-009 8.75237e-006 -1.47794e-008 0.798112 4.94476 1.05137 -1.31178 -1.51548 1.39362 35.5031 1.68376 0.0226503 41.9854 -16.0752 1.11443 5.20631 31.0931 13.7746 -8.01387 9.59505 -0.600007 -45.4862 3.58054 -3.33299 -26.5002 -12.8283 1.91689 -4.91745 34.9582 -14.2812 5.82328 9.61819 -0.917488 1.64428 -2.59913 -0.759028 -2.09858 1.74138 -4.47339 -0.629441 10.3993 -8.17804 4.85866 -12.9326 0.0298056 0.0462048 0.000530889 0.662642 
256.04 103.298 8.21132 -2.48474 -0.398963 -93.2232 0.238836 1.7875 2.94077 -0.113837 8.6504 19.9574 -3.03773 -11.382 -0.0414911 -1.33828e-009 8.75237e-006 -1.47794e-008 0.541235 4.96389 1.20942 -1.15238 -1.75847 1.52411 35.4464 1.68376 0.0226503 42.0195 -15.8377 1.01211 5.06242 31.3533 13.9023 -8.46269 9.56144 -0.3729 -45.5242 3.58053 -3.33708 -26.4569 -12.3337 2.03933 -4.88023 34.4685 -14.4632 5.82328 9.61819 -0.917488 1.63289 -2.64206 -1.40949 -2.22734 1.17109 -4.42709 -0.743115 10.8032 -7.83783 4.9006 -13.0257 0.0298167 0.0462048 0.000530889 0.662642 
256.181 103.286 8.20834 -1.93996 -0.605197 -94.1535 0.0938228 1.22903 2.91343 -0.345081 8.54452 20.9401 -2.94282 -11.2784 -0.0415293 -1.33828e-009 8.75237e-006 -1.47794e-008 0.328558 5.08655 1.50968 -1.23853 -2.52917 1.83652 35.4161 1.68376 0.0226503 42.2562 -17.0552 1.3581 5.25862 33.7901 12.9161 -9.12715 9.49388 0.183879 -45.5432 3.58059 -3.33938 -26.2885 -11.8001 2.51512 -4.69624 33.7547 -14.8532 5.82328 9.61819 -0.917488 1.71179 -2.7656 -1.95924 -2.36394 -0.0358021 -4.21759 -1.01248 11.5404 -7.09443 4.89974 -13.1444 0.0298882 0.0462048 0.000530889 0.662642 
256.094 103.28 8.25191 -2.15499 -0.520076 -94.0955 0.128477 1.51097 2.97371 -0.320328 8.56115 20.8367 -2.94803 -11.3809 -0.0417328 -1.33828e-009 8.75237e-006 -1.47794e-008 0.586722 5.43529 1.26898 -1.54114 -2.82597 1.64304 35.4342 1.68376 0.0226503 42.5361 -18.7414 1.78919 5.65718 36.339 11.6579 -9.25392 9.45137 0.698 -45.5562 3.58106 -3.34139 -26.042 -11.7198 3.06277 -4.56984 33.372 -15.0732 5.82328 9.61819 -0.917488 1.97319 -2.40074 -1.87409 -2.3335 0.338017 -4.28051 -0.979399 11.4044 -7.08294 4.92235 -13.1394 0.0301485 0.0462048 0.000530889 0.662642 
256.042 103.27 8.28886 -2.23171 -0.511754 -94.0613 0.0975223 1.61069 2.95965 -0.306198 8.58456 20.8354 -2.92771 -11.449 -0.0419043 -1.33828e-009 8.75237e-006 -1.47794e-008 0.671474 5.66342 1.14201 -1.66124 -3.13565 1.53499 35.4731 1.68376 0.0226503 42.5948 -19.3419 1.74623 5.62152 37.298 11.4373 -8.8528 9.42507 1.39415 -45.5775 3.58182 -3.34312 -25.8322 -12.2553 3.30743 -4.65838 33.6979 -14.8592 5.82328 9.61819 -0.917488 2.25343 -1.68244 -1.49221 -2.35811 0.442211 -4.32682 -0.98457 11.4413 -7.07535 4.99223 -13.183 0.0301668 0.0462048 0.000530889 0.662642 
256.013 103.264 8.32001 -2.18322 -0.550345 -94.0367 0.0386679 1.54964 2.90713 -0.308392 8.61803 20.868 -2.90487 -11.4611 -0.0420559 -1.33828e-009 8.75237e-006 -1.47794e-008 0.621788 5.61766 1.12878 -1.61579 -3.17826 1.51527 35.5029 1.68376 0.0226503 42.4681 -18.9202 1.38713 5.28689 36.9609 11.9923 -8.78329 9.3868 2.01452 -45.5833 3.58279 -3.34458 -25.7597 -12.9556 3.20316 -4.85146 34.4019 -14.4416 5.82328 9.61819 -0.917488 2.35555 -1.17522 -1.31882 -2.41181 0.377788 -4.35059 -1.00078 11.4994 -7.07915 4.99987 -13.2169 0.0298298 0.0462048 0.000530889 0.662642 
